<?xml version="1.0"?>
<svg width="64" height="64" xmlns="http://www.w3.org/2000/svg" xmlns:svg="http://www.w3.org/2000/svg">
 <g class="layer">
  <title>Layer 1</title>
  <g id="svg_2">
   <path d="m22.578205,22.3339c-0.210934,0 -0.382127,0.158427 -0.382127,0.354219l0,6.854875c0,0.195465 0.171265,0.354288 0.382127,0.354288l1.848779,0c0.211005,0 0.382125,-0.158822 0.382125,-0.354288l0,-6.854875c0,-0.195792 -0.17105,-0.354219 -0.382125,-0.354219l-1.848779,0z" fill="#c40f0f" id="svg_3"/>
   <path d="m29.973177,22.3339c-0.211005,0 -0.382127,0.158427 -0.382127,0.354219l0,6.854875c0,0.195465 0.17105,0.354288 0.382127,0.354288l1.848777,0c0.211218,0 0.382198,-0.158822 0.382198,-0.354288l0,-6.854875c0,-0.195792 -0.170979,-0.354219 -0.382198,-0.354219l-1.848777,0z" fill="#c40f0f" id="svg_4"/>
   <path d="m37.369214,22.3339c-0.211644,0 -0.382195,0.158427 -0.382195,0.354219l0,6.854875c0,0.195465 0.170552,0.354288 0.382195,0.354288l1.848849,0c0.210864,0 0.382127,-0.158822 0.382127,-0.354288l0,-6.854875c0,-0.195792 -0.171263,-0.354219 -0.382127,-0.354219l-1.848849,0z" fill="#c40f0f" id="svg_5"/>
   <path d="m40.523121,21.625393l0,-0.856851c0,-0.19586 -0.171334,-0.354221 -0.382195,-0.354221l-18.486433,0c-0.210864,0 -0.382127,0.158361 -0.382127,0.354221l0,0.856851c0,0.195463 0.171263,0.354219 0.382127,0.354219l18.486788,0c0.210862,0 0.381841,-0.158756 0.381841,-0.354219z" fill="#c40f0f" id="svg_6"/>
   <path d="m40.988924,18.494545l-20.182362,0c-0.211005,0 -0.382125,0.158493 -0.382125,0.354285l0,0.856851c0,0.195465 0.17112,0.354221 0.382125,0.354221l20.182362,0c0.210864,0 0.382127,-0.158822 0.382127,-0.354221l0,-0.856586c0,-0.196057 -0.171263,-0.35455 -0.382127,-0.35455z" fill="#c40f0f" id="svg_7"/>
   <path d="m41.902756,17.100795l-10.820171,-5.548973c-0.114958,-0.059114 -0.255224,-0.059114 -0.370252,0l-10.860765,5.570126c-0.152496,0.078161 -0.228565,0.242123 -0.185126,0.398508c0.04358,0.155988 0.195719,0.265713 0.369968,0.265713l21.722668,0c0.003341,0 0.005544,-0.000329 0.007891,0c0.211218,0 0.382054,-0.158822 0.382054,-0.354219c-0.000284,-0.151574 -0.102444,-0.28028 -0.246266,-0.331154zm-11.005154,-0.550016c-0.843025,0 -1.528576,-0.635552 -1.528576,-1.416947c0,-0.781525 0.685624,-1.417014 1.528576,-1.417014c0.843164,0 1.528645,0.635555 1.528645,1.417014c0.000071,0.781395 -0.685481,1.416947 -1.528645,1.416947z" fill="#c40f0f" id="svg_8"/>
   <circle cx="30.897601" cy="15.133766" fill="#c40f0f" id="svg_9" r="0.126547"/>
   <path d="m21.271938,31.463035c0,0.195463 0.171265,0.354285 0.382198,0.354285l18.486433,0c0.211218,0 0.382127,-0.158822 0.382127,-0.354285l0,-0.856917c0,-0.195794 -0.170909,-0.354221 -0.382127,-0.354221l-18.486433,0c-0.210934,0 -0.382198,0.158427 -0.382198,0.354221l0,0.856917z" fill="#c40f0f" id="svg_10"/>
   <path d="m40.988499,32.171542l-20.181936,0c-0.211005,0 -0.382125,0.158822 -0.382125,0.354285l0,0.856917c0,0.195465 0.17112,0.354155 0.382125,0.354155l20.182362,0c0.210864,0 0.382127,-0.158692 0.382127,-0.354155l0,-0.856917c-0.000357,-0.195463 -0.171691,-0.354285 -0.382552,-0.354285z" fill="#c40f0f" id="svg_11"/>
  </g>
  <g id="svg_12"/>
  <g id="svg_13"/>
  <g id="svg_14"/>
  <g id="svg_15"/>
  <g id="svg_16"/>
  <g id="svg_17"/>
  <g id="svg_18"/>
  <g id="svg_19"/>
  <g id="svg_20"/>
  <g id="svg_21"/>
  <g id="svg_22"/>
  <g id="svg_23"/>
  <g id="svg_24"/>
  <g id="svg_25"/>
  <g id="svg_26"/>
  <path d="m31.088422,0.322599c-13.761738,0 -24.920055,10.705717 -24.920055,23.909256c0,5.378022 1.849471,10.335952 4.972918,14.332676l19.947275,25.51604l19.947138,-25.51604c3.123721,-3.996724 4.972918,-8.954523 4.972918,-14.332676c0,-13.203539 -11.158318,-23.909256 -24.920192,-23.909256zm0,39.848585c-9.174629,0 -16.613188,-7.136576 -16.613188,-15.939329c0,-8.80249 7.438559,-15.939592 16.613188,-15.939592c9.174903,0 16.613188,7.137101 16.613188,15.939592c0,8.802885 -7.438148,15.939329 -16.613188,15.939329z" fill="#c40f0f" id="svg_33" stroke="#000000" stroke-width="0.4"/>
  <g id="svg_34" transform="matrix(0.882432 0 0 0.868449 15.7547 18.1126)"/>
  <g id="svg_35" transform="matrix(0.882432 0 0 0.868449 15.7547 18.1126)"/>
  <g id="svg_36" transform="matrix(0.882432 0 0 0.868449 15.7547 18.1126)"/>
  <g id="svg_37" transform="matrix(0.882432 0 0 0.868449 15.7547 18.1126)"/>
  <g id="svg_38" transform="matrix(0.882432 0 0 0.868449 15.7547 18.1126)"/>
  <g id="svg_39" transform="matrix(0.882432 0 0 0.868449 15.7547 18.1126)"/>
  <g id="svg_40" transform="matrix(0.882432 0 0 0.868449 15.7547 18.1126)"/>
  <g id="svg_41" transform="matrix(0.882432 0 0 0.868449 15.7547 18.1126)"/>
  <g id="svg_42" transform="matrix(0.882432 0 0 0.868449 15.7547 18.1126)"/>
  <g id="svg_43" transform="matrix(0.882432 0 0 0.868449 15.7547 18.1126)"/>
  <g id="svg_44" transform="matrix(0.882432 0 0 0.868449 15.7547 18.1126)"/>
  <g id="svg_45" transform="matrix(0.882432 0 0 0.868449 15.7547 18.1126)"/>
  <g id="svg_46" transform="matrix(0.882432 0 0 0.868449 15.7547 18.1126)"/>
  <g id="svg_47" transform="matrix(0.882432 0 0 0.868449 15.7547 18.1126)"/>
  <g id="svg_48" transform="matrix(0.882432 0 0 0.868449 15.7547 18.1126)"/>
  <g id="svg_30"/>
 </g>
</svg>