<?xml version="1.0"?>
<svg width="64" height="64" xmlns="http://www.w3.org/2000/svg" xmlns:svg="http://www.w3.org/2000/svg">
 <g class="layer">
  <title>Layer 1</title>
  <g id="svg_1">
   <path d="m33.133148,0.579062c-13.359429,0 -24.191547,10.559316 -24.191547,23.582294c0,5.304477 1.795404,10.194607 4.827541,14.136675l19.36414,25.167105l19.364007,-25.167105c3.032402,-3.942068 4.827541,-8.832068 4.827541,-14.136675c0,-13.022979 -10.832118,-23.582294 -24.19168,-23.582294l-0.000002,0zm0,39.303651c-8.90642,0 -16.127521,-7.038982 -16.127521,-15.721357c0,-8.682115 7.221102,-15.721616 16.127521,-15.721616c8.906686,0 16.127521,7.039501 16.127521,15.721616c0,8.682504 -7.220703,15.721357 -16.127521,15.721357z" fill="#ffda44" id="svg_2" stroke="#000000" stroke-width="0.4"/>
  </g>
  <g id="svg_3"/>
  <g id="svg_4"/>
  <g id="svg_5"/>
  <g id="svg_6"/>
  <g id="svg_7"/>
  <g id="svg_8"/>
  <g id="svg_9"/>
  <g id="svg_10"/>
  <g id="svg_11"/>
  <g id="svg_12"/>
  <g id="svg_13"/>
  <g id="svg_14"/>
  <g id="svg_15"/>
  <g id="svg_16"/>
  <g id="svg_17"/>
  <g id="svg_21"/>
  <path d="m44.135912,26.263348c-0.17614,0.219173 -0.427938,0.332064 -0.681162,0.332064c-0.202864,0 -0.406916,-0.072351 -0.574148,-0.220669l-0.122692,-0.108775l0,8.398163c0,0.516808 -0.39872,0.935569 -0.890796,0.935569l-5.987693,0c-0.492076,0 -0.890796,-0.418761 -0.890796,-0.935569l0,-7.13527c0,-1.072785 -0.830934,-1.945484 -1.85238,-1.945484s-1.85238,0.872698 -1.85238,1.945484l0,7.13527c0,0.516808 -0.39872,0.935569 -0.890796,0.935569l-5.987574,0c-0.492076,0 -0.890796,-0.418761 -0.890796,-0.935569l0,-8.398163l-0.122692,0.108775c-0.167232,0.148194 -0.371284,0.220669 -0.574148,0.220669c-0.253342,0 -0.505022,-0.112767 -0.681162,-0.332064c-0.317361,-0.39481 -0.269733,-0.985091 0.106183,-1.318403l10.002688,-8.867444l0,-2.054883l-0.594695,0c-0.492076,0 -0.890796,-0.418761 -0.890796,-0.935569s0.39872,-0.935569 0.890796,-0.935569l0.594695,0l0,-1.147007c0,-0.516808 0.39872,-0.935569 0.890796,-0.935569s0.890796,0.418761 0.890796,0.935569l0,1.147007l0.660733,0c0.492076,0 0.890796,0.418761 0.890796,0.935569s-0.39872,0.935569 -0.890796,0.935569l-0.660733,0l0,2.054883l10.002807,8.867444c0.375797,0.333312 0.423306,0.923469 0.105945,1.318403z" fill="#FFDA44" id="svg_52" stroke="#000000" stroke-width="0.4"/>
  <g id="svg_51" transform="matrix(0.371888 0 0 0.366869 21.4126 9.84668)"/>
  <g id="svg_50" transform="matrix(0.371888 0 0 0.366869 21.4126 9.84668)"/>
  <g id="svg_49" transform="matrix(0.371888 0 0 0.366869 21.4126 9.84668)"/>
  <g id="svg_48" transform="matrix(0.371888 0 0 0.366869 21.4126 9.84668)"/>
  <g id="svg_47" transform="matrix(0.371888 0 0 0.366869 21.4126 9.84668)"/>
  <g id="svg_46" transform="matrix(0.371888 0 0 0.366869 21.4126 9.84668)"/>
  <g id="svg_45" transform="matrix(0.371888 0 0 0.366869 21.4126 9.84668)"/>
  <g id="svg_44" transform="matrix(0.371888 0 0 0.366869 21.4126 9.84668)"/>
  <g id="svg_43" transform="matrix(0.371888 0 0 0.366869 21.4126 9.84668)"/>
  <g id="svg_42" transform="matrix(0.371888 0 0 0.366869 21.4126 9.84668)"/>
  <g id="svg_41" transform="matrix(0.371888 0 0 0.366869 21.4126 9.84668)"/>
  <g id="svg_40" transform="matrix(0.371888 0 0 0.366869 21.4126 9.84668)"/>
  <g id="svg_39" transform="matrix(0.371888 0 0 0.366869 21.4126 9.84668)"/>
  <g id="svg_38" transform="matrix(0.371888 0 0 0.366869 21.4126 9.84668)"/>
  <g id="svg_37" transform="matrix(0.371888 0 0 0.366869 21.4126 9.84668)"/>
 </g>

</svg>