<?xml version="1.0"?>
<svg width="64" height="64" xmlns="http://www.w3.org/2000/svg" xmlns:svg="http://www.w3.org/2000/svg">
 <g class="layer">
  <title>Layer 1</title>
  <g id="svg_25"/>
  <g id="svg_26"/>
  <g id="svg_27"/>
  <g id="svg_28"/>
  <g id="svg_29"/>
  <g id="svg_30"/>
  <g id="svg_31"/>
  <g id="svg_32"/>
  <g id="svg_33"/>
  <g id="svg_34"/>
  <g id="svg_35"/>
  <g id="svg_36"/>
  <g id="svg_37"/>
  <g id="svg_38"/>
  <g id="svg_39"/>
  <g id="svg_44"/>
  <g id="svg_40">
   <g id="svg_1">
    <g id="svg_2">
     <path d="m40.647728,24.640343c-0.839349,0 -1.527906,0.648128 -1.639145,1.484057c-0.400821,0.558787 -1.004287,0.885292 -1.684719,0.885292s-1.283898,-0.326467 -1.684719,-0.885292c-0.111239,-0.835929 -0.799795,-1.484057 -1.639145,-1.484057s-1.527906,0.648128 -1.639145,1.484057c-0.400821,0.558787 -1.004287,0.885292 -1.684719,0.885292s-1.283898,-0.326467 -1.684719,-0.885292c-0.111239,-0.835929 -0.799795,-1.484057 -1.639145,-1.484057c-0.916426,0 -1.661932,0.770048 -1.661932,1.716643c0,0.956056 0.77867,1.716643 1.661932,1.716643c0.447466,0 0.903463,-0.198673 1.229608,-0.572138l0.000074,-0.000076c0.028142,-0.032273 0.054438,-0.065995 0.080142,-0.100366c0.564798,0.472535 1.265986,0.753072 2.01404,0.753072s1.449241,-0.280538 2.01404,-0.753072c0.30417,0.40612 0.77531,0.672581 1.309824,0.672581s1.005653,-0.266461 1.309824,-0.672581c0.564798,0.472535 1.265986,0.753072 2.01404,0.753072s1.449241,-0.280538 2.01404,-0.753072c0.30417,0.40612 0.77531,0.672581 1.309824,0.672581c0.916426,0 1.661932,-0.770048 1.661932,-1.716643c0,-0.946595 -0.745506,-1.716643 -1.661932,-1.716643z" fill="#006DF0" id="svg_3"/>
    </g>
   </g>
   <g id="svg_4">
    <g id="svg_5">
     <path d="m29.568183,32.689493l-0.553977,0l0,-4.043649c0,-0.004616 -0.001219,-0.008888 -0.001293,-0.013466c-0.464085,0.362441 -1.03531,0.585681 -1.660639,0.585681s-1.196554,-0.22324 -1.660639,-0.585681c-0.000074,0.004578 -0.001293,0.00885 -0.001293,0.013466l0,4.043649l-0.590909,0c-0.306202,0 -0.553977,0.255932 -0.553977,0.572214c0,0.316282 0.247776,0.572214 0.553977,0.572214c0.472801,0 3.996244,0 4.46875,0c0.306202,0 0.553977,-0.255932 0.553977,-0.572214c0,-0.316282 -0.247776,-0.572214 -0.553977,-0.572214z" fill="#006DF0" id="svg_6"/>
    </g>
   </g>
   <g id="svg_7">
    <g id="svg_8">
     <path d="m36.21591,32.689493l-0.553977,0l0,-4.043649c0,-0.004616 -0.001219,-0.008888 -0.001293,-0.013466c-0.464085,0.362441 -1.03531,0.585681 -1.660639,0.585681s-1.196554,-0.22324 -1.660639,-0.585681c-0.000074,0.004578 -0.001293,0.00885 -0.001293,0.013466l0,4.043649l-0.553977,0c-0.306202,0 -0.553977,0.255932 -0.553977,0.572214c0,0.316282 0.247776,0.572214 0.553977,0.572214c0.472801,0 3.959313,0 4.431818,0c0.306202,0 0.553977,-0.255932 0.553977,-0.572214c0,-0.316282 -0.247776,-0.572214 -0.553977,-0.572214z" fill="#006DF0" id="svg_9"/>
    </g>
   </g>
   <g id="svg_10">
    <g id="svg_11">
     <path d="m42.900569,32.689493l-0.590909,0l0,-4.043649c0,-0.004616 -0.001219,-0.008888 -0.001293,-0.013466c-0.464085,0.362441 -1.03531,0.585681 -1.660639,0.585681s-1.196554,-0.22324 -1.660639,-0.585681c-0.000074,0.004578 -0.001293,0.00885 -0.001293,0.013466l0,4.043649l-0.553977,0c-0.306202,0 -0.553977,0.255932 -0.553977,0.572214c0,0.316282 0.247776,0.572214 0.553977,0.572214c0.472801,0 3.996244,0 4.46875,0c0.306202,0 0.553977,-0.255932 0.553977,-0.572214c0,-0.316282 -0.247776,-0.572214 -0.553977,-0.572214z" fill="#006DF0" id="svg_12"/>
    </g>
   </g>
   <g id="svg_13">
    <g id="svg_14">
     <path d="m31.74716,14.302334l-5.539773,0c-0.916426,0 -1.661932,0.770048 -1.661932,1.716643l0,4.005501l8.863636,0l0,-4.005501c0,-0.946595 -0.745506,-1.716643 -1.661932,-1.716643z" fill="#006DF0" id="svg_15"/>
    </g>
   </g>
   <g id="svg_16">
    <g id="svg_17">
     <path d="m24.545455,21.168908l0,0.572214c0,0.946595 0.745506,1.716643 1.661932,1.716643l5.539773,0c0.916426,0 1.661932,-0.770048 1.661932,-1.716643l0,-0.572214l-8.863636,0z" fill="#006DF0" id="svg_18"/>
    </g>
   </g>
   <g id="svg_19">
    <g id="svg_20">
     <path d="m41.792615,14.302334l-5.539773,0c-0.916426,0 -1.661932,0.770048 -1.661932,1.716643l0,4.005501l8.863636,0l0,-4.005501c0,-0.946595 -0.745506,-1.716643 -1.661932,-1.716643z" fill="#006DF0" id="svg_21"/>
    </g>
   </g>
   <g id="svg_22">
    <g id="svg_23">
     <path d="m34.59091,21.168908l0,0.572214c0,0.946595 0.745506,1.716643 1.661932,1.716643l5.539773,0c0.916426,0 1.661932,-0.770048 1.661932,-1.716643l0,-0.572214l-8.863636,0z" fill="#006DF0" id="svg_24"/>
    </g>
   </g>
  </g>
  <path d="m33.782147,0.105382c-13.113604,0 -23.746401,10.6511 -23.746401,23.787277c0,5.350585 1.762367,10.283221 4.738709,14.259555l19.007822,25.385864l19.007692,-25.385864c2.976604,-3.976334 4.738709,-8.908839 4.738709,-14.259555c0,-13.136178 -10.632797,-23.787277 -23.746532,-23.787277zm0,39.645288c-8.742533,0 -15.83076,-7.100167 -15.83076,-15.858011c0,-8.757583 7.088227,-15.858272 15.83076,-15.858272c8.742794,0 15.83076,7.10069 15.83076,15.858272c0,8.757975 -7.087835,15.858011 -15.83076,15.858011z" fill="#006DF0" id="svg_47" stroke="#000000" stroke-width="0.4"/>
  <g id="svg_48" transform="matrix(0.130507 0 0 0.130732 -0.201398 171.192)"/>
  <g id="svg_49" transform="matrix(0.130507 0 0 0.130732 -0.201398 171.192)"/>
  <g id="svg_50" transform="matrix(0.130507 0 0 0.130732 -0.201398 171.192)"/>
  <g id="svg_51" transform="matrix(0.130507 0 0 0.130732 -0.201398 171.192)"/>
  <g id="svg_52" transform="matrix(0.130507 0 0 0.130732 -0.201398 171.192)"/>
  <g id="svg_53" transform="matrix(0.130507 0 0 0.130732 -0.201398 171.192)"/>
  <g id="svg_54" transform="matrix(0.130507 0 0 0.130732 -0.201398 171.192)"/>
  <g id="svg_55" transform="matrix(0.130507 0 0 0.130732 -0.201398 171.192)"/>
  <g id="svg_56" transform="matrix(0.130507 0 0 0.130732 -0.201398 171.192)"/>
  <g id="svg_57" transform="matrix(0.130507 0 0 0.130732 -0.201398 171.192)"/>
  <g id="svg_58" transform="matrix(0.130507 0 0 0.130732 -0.201398 171.192)"/>
  <g id="svg_59" transform="matrix(0.130507 0 0 0.130732 -0.201398 171.192)"/>
  <g id="svg_60" transform="matrix(0.130507 0 0 0.130732 -0.201398 171.192)"/>
  <g id="svg_61" transform="matrix(0.130507 0 0 0.130732 -0.201398 171.192)"/>
  <g id="svg_62" transform="matrix(0.130507 0 0 0.130732 -0.201398 171.192)"/>
 </g>

</svg>