<?xml version="1.0"?>
<svg width="64" height="64" xmlns="http://www.w3.org/2000/svg" xmlns:svg="http://www.w3.org/2000/svg">
 <g class="layer">
  <title>Layer 1</title>
  <g id="svg_1">
   <path d="m35.242801,0.545456c-13.580463,0 -24.591799,10.598947 -24.591799,23.670804c0,5.324386 1.825109,10.23287 4.907412,14.189733l19.684522,25.261563l19.684387,-25.261563c3.082574,-3.956864 4.907412,-8.865217 4.907412,-14.189733c0,-13.071857 -11.011336,-23.670804 -24.591934,-23.670804zm0,39.451167c-9.053777,0 -16.394353,-7.065401 -16.394353,-15.780363c0,-8.714701 7.340575,-15.780623 16.394353,-15.780623c9.054048,0 16.394353,7.065921 16.394353,15.780623c0,8.715092 -7.34017,15.780363 -16.394353,15.780363z" fill="#933EC5" id="svg_2" stroke="#000000" stroke-width="0.4"/>
  </g>
  <g id="svg_3"/>
  <g id="svg_4"/>
  <g id="svg_5"/>
  <g id="svg_6"/>
  <g id="svg_7"/>
  <g id="svg_8"/>
  <g id="svg_9"/>
  <g id="svg_10"/>
  <g id="svg_11"/>
  <g id="svg_12"/>
  <g id="svg_13"/>
  <g id="svg_14"/>
  <g id="svg_15"/>
  <g id="svg_16"/>
  <g id="svg_17"/>
  <path d="m46.779084,20.903744c-0.039198,-0.172931 -0.14252,-0.31897 -0.283947,-0.403295c-0.141046,-0.083798 -0.307779,-0.09801 -0.459052,-0.038993c-1.326257,0.517526 -3.372537,0.85055 -5.673984,0.85055c-0.559521,0 -1.098777,-0.023723 -1.621621,-0.061078c-0.270341,1.356611 -0.702326,2.602267 -1.254093,3.699349c0.02683,-0.001215 0.05247,-0.006076 0.079537,-0.006076c0.71517,0 1.294766,-0.066256 1.294766,0.468812c0,0.535068 -0.579643,1.468993 -1.294766,1.468993c-0.416572,0 -0.783339,-0.149737 -1.02,-0.37841c-0.714742,0.985598 -1.549742,1.76276 -2.469322,2.276693c1.036793,3.876085 3.46078,6.595172 6.285499,6.595172c3.768464,0 6.823327,-4.838911 6.823327,-10.808033c-0.000048,-1.287608 -0.144804,-2.519738 -0.406345,-3.663685zm-3.697775,11.315837c-0.012083,0.056957 -0.050234,0.1034 -0.100373,0.121681c-0.050234,0.018651 -0.105511,0.006921 -0.14585,-0.030962c-0.531549,-0.496075 -1.435764,-0.825665 -2.472937,-0.825665c-1.037268,0 -1.941483,0.32959 -2.472985,0.825665c-0.040387,0.037461 -0.095711,0.049243 -0.14585,0.030962c-0.050187,-0.018704 -0.08829,-0.064724 -0.100373,-0.121681c-0.044002,-0.207962 -0.07107,-0.422369 -0.07107,-0.645389c0,-1.711615 1.249336,-3.099135 2.790325,-3.099135c1.540989,0 2.79023,1.387573 2.79023,3.099135c-0.000095,0.22302 -0.027163,0.43748 -0.071117,0.645389zm0.076921,-5.337628c-0.71517,0 -1.294766,-0.933925 -1.294766,-1.468993c0,-0.535068 0.579643,-0.468812 1.294766,-0.468812c0.715123,0 1.294766,0.433835 1.294766,0.968902c-0.000048,0.535068 -0.579643,0.968902 -1.294766,0.968902z" fill="#933EC5" id="svg_56" stroke="#000000" stroke-width="0.2"/>
  <path d="m38.3221,17.848146c0,-1.287449 -0.144756,-2.519632 -0.406297,-3.663527c-0.039198,-0.172931 -0.14252,-0.319075 -0.283947,-0.403295c-0.083533,-0.049613 -0.176248,-0.074815 -0.269675,-0.074815c-0.063792,0 -0.127869,0.011677 -0.189377,0.035823c-1.326257,0.517526 -3.37249,0.850445 -5.673984,0.850445c-2.301542,0 -4.347774,-0.332918 -5.674031,-0.850445c-0.061175,-0.024146 -0.124919,-0.035823 -0.188663,-0.035823c-0.09338,0 -0.186523,0.025467 -0.270437,0.075238c-0.141046,0.08422 -0.244701,0.230311 -0.283947,0.402873c-0.261541,1.143947 -0.406297,2.376078 -0.406297,3.663527c0,5.969227 3.054816,10.808033 6.823375,10.808033c3.768464,0 6.82328,-4.838806 6.82328,-10.808033zm-10.91427,1.343297c0,-0.535174 0.579643,-0.968902 1.294813,-0.968902c0.715123,0 1.294766,0.933819 1.294766,1.468993c0,0.535068 -0.579643,0.468812 -1.294766,0.468812c-0.71517,0 -1.294813,-0.433835 -1.294813,-0.968902zm4.09099,7.421471c-1.541037,0 -2.790278,-1.387573 -2.790278,-3.099029c0,-0.22302 0.027067,-0.437533 0.071022,-0.645495c0.012083,-0.056851 0.050234,-0.102871 0.100373,-0.121681c0.050234,-0.018281 0.105511,-0.006499 0.14585,0.030962c0.531549,0.496075 1.435764,0.825665 2.472985,0.825665c1.037221,0 1.941435,-0.32959 2.472937,-0.825665c0.040387,-0.037883 0.095664,-0.049613 0.14585,-0.030962c0.050187,0.018387 0.08829,0.064829 0.100373,0.121681c0.043955,0.207962 0.07107,0.422475 0.07107,0.645495c0.000048,1.711456 -1.249241,3.099029 -2.790183,3.099029zm1.501316,-6.92138c0,-0.535174 0.579643,-1.468993 1.294813,-1.468993c0.715123,0 1.294766,0.433729 1.294766,0.968902c0,0.535068 -0.579643,0.968902 -1.294766,0.968902c-0.71517,0 -1.294813,0.066256 -1.294813,-0.468812z" fill="#933EC5" id="svg_55" stroke="#000000" stroke-width="0.2"/>
  <g id="svg_53" transform="matrix(0.0475702 0 0 0.0528358 28.7742 5.96059)"/>
  <g id="svg_52" transform="matrix(0.0475702 0 0 0.0528358 28.7742 5.96059)"/>
  <g id="svg_51" transform="matrix(0.0475702 0 0 0.0528358 28.7742 5.96059)"/>
  <g id="svg_50" transform="matrix(0.0475702 0 0 0.0528358 28.7742 5.96059)"/>
  <g id="svg_49" transform="matrix(0.0475702 0 0 0.0528358 28.7742 5.96059)"/>
  <g id="svg_48" transform="matrix(0.0475702 0 0 0.0528358 28.7742 5.96059)"/>
  <g id="svg_47" transform="matrix(0.0475702 0 0 0.0528358 28.7742 5.96059)"/>
  <g id="svg_46" transform="matrix(0.0475702 0 0 0.0528358 28.7742 5.96059)"/>
  <g id="svg_45" transform="matrix(0.0475702 0 0 0.0528358 28.7742 5.96059)"/>
  <g id="svg_44" transform="matrix(0.0475702 0 0 0.0528358 28.7742 5.96059)"/>
  <g id="svg_43" transform="matrix(0.0475702 0 0 0.0528358 28.7742 5.96059)"/>
  <g id="svg_42" transform="matrix(0.0475702 0 0 0.0528358 28.7742 5.96059)"/>
  <g id="svg_41" transform="matrix(0.0475702 0 0 0.0528358 28.7742 5.96059)"/>
  <g id="svg_40" transform="matrix(0.0475702 0 0 0.0528358 28.7742 5.96059)"/>
  <g id="svg_39" transform="matrix(0.0475702 0 0 0.0528358 28.7742 5.96059)"/>
  <g id="svg_21"/>
 </g>

</svg>