<?xml version="1.0"?>
<svg width="48" height="48" xmlns="http://www.w3.org/2000/svg" xmlns:svg="http://www.w3.org/2000/svg">
 <g class="layer">
  <title>Layer 1</title>
  <path d="m12.402042,26.155235c-0.438215,-0.437758 -0.510336,-1.164489 -0.170112,-1.695991c1.810086,-2.824358 5.72031,-4.556471 8.309618,-5.305562l0,-1.247912c-2.658294,-2.14063 -4.226146,-6.303204 -4.226146,-9.339131c0,-4.632154 3.434381,-8.399972 7.655823,-8.399972c4.221443,0 7.656607,3.767818 7.656607,8.399972c0,3.035927 -1.568636,7.199361 -4.22693,9.339131l0,1.247912c2.590092,0.749091 6.500316,2.481204 8.310402,5.305562c0.341008,0.531502 0.268103,1.258233 -0.170112,1.695991c-1.338162,1.337356 -5.702279,6.156138 -5.702279,12.036204c0,0.510001 0.01803,1.013982 0.049387,1.510223c0.023518,0.356915 -0.090152,0.70867 -0.312003,0.970121c-0.222635,0.262311 -0.533854,0.411097 -0.860751,0.411097l-9.488643,0c-0.326897,0 -0.638116,-0.148786 -0.860751,-0.411097c-0.222635,-0.262311 -0.33552,-0.613206 -0.312003,-0.970121c0.032141,-0.497101 0.049387,-1.000222 0.049387,-1.510223c0.000784,-5.880926 -4.364117,-10.699708 -5.701495,-12.036204zm22.788735,16.139436l-22.439888,0c-0.649875,0 -1.175889,0.577084 -1.175889,1.290054l0,2.401221c0,0.71297 0.526014,1.290054 1.175889,1.290054l22.439888,0c0.649875,0 1.175889,-0.577084 1.175889,-1.290054l0,-2.401221c0,-0.71297 -0.526014,-1.290054 -1.175889,-1.290054z" fill="#4c4c4c" id="svg_1"/>
  <g id="svg_2"/>
  <g id="svg_3"/>
  <g id="svg_4"/>
  <g id="svg_5"/>
  <g id="svg_6"/>
  <g id="svg_7"/>
  <g id="svg_8"/>
  <g id="svg_9"/>
  <g id="svg_10"/>
  <g id="svg_11"/>
  <g id="svg_12"/>
  <g id="svg_13"/>
  <g id="svg_14"/>
  <g id="svg_15"/>
  <g id="svg_16"/>
 </g>
</svg>