<?xml version="1.0"?>
<svg width="54.776" height="54.776" xmlns="http://www.w3.org/2000/svg" xmlns:svg="http://www.w3.org/2000/svg">
 <g class="layer">
  <title>Layer 1</title>
  <path d="m12.63,30.218c-0.559,-0.509 -0.651,-1.354 -0.217,-1.972c2.309,-3.284 7.297,-5.298 10.6,-6.169l0,-1.451c-3.391,-2.489 -5.391,-7.329 -5.391,-10.859c0,-5.386 4.381,-9.767 9.766,-9.767c5.385,0 9.767,4.381 9.767,9.767c0,3.53 -2.001,8.371 -5.392,10.859l0,1.451c3.304,0.871 8.292,2.885 10.601,6.169c0.435,0.618 0.342,1.463 -0.217,1.972c-1.707,1.555 -7.274,7.158 -7.274,13.995c0,0.593 0.023,1.179 0.063,1.756c0.03,0.415 -0.115,0.824 -0.398,1.128c-0.284,0.305 -0.681,0.478 -1.098,0.478l-12.104,0c-0.417,0 -0.814,-0.173 -1.098,-0.478c-0.284,-0.305 -0.428,-0.713 -0.398,-1.128c0.041,-0.578 0.063,-1.163 0.063,-1.756c0.001,-6.838 -5.567,-12.441 -7.273,-13.995zm29.07,18.766l-28.625,0c-0.829,0 -1.5,0.671 -1.5,1.5l0,2.792c0,0.829 0.671,1.5 1.5,1.5l28.625,0c0.829,0 1.5,-0.671 1.5,-1.5l0,-2.792c0,-0.829 -0.671,-1.5 -1.5,-1.5z" fill="#4c4c4c" id="svg_1"/>
  <g id="svg_2"/>
  <g id="svg_3"/>
  <g id="svg_4"/>
  <g id="svg_5"/>
  <g id="svg_6"/>
  <g id="svg_7"/>
  <g id="svg_8"/>
  <g id="svg_9"/>
  <g id="svg_10"/>
  <g id="svg_11"/>
  <g id="svg_12"/>
  <g id="svg_13"/>
  <g id="svg_14"/>
  <g id="svg_15"/>
  <g id="svg_16"/>
 </g>
</svg>